<?xml version="1.0" standalone="no"?>
<!DOCTYPE svg PUBLIC "-//W3C//DTD SVG 1.1//EN" "http://www.w3.org/Graphics/SVG/1.1/DTD/svg11.dtd">
<svg xmlns="http://www.w3.org/2000/svg" xmlns:xlink="http://www.w3.org/1999/xlink" version="1.1" id="Layer_1" x="0px" y="0px" viewBox="0 0 593.79 130.51" style="enable-background:new 0 0 593.79 130.51;" xml:space="preserve" width="593.7899780273438" height="130.50999450683594">
<style type="text/css">
	.st0{fill-rule:evenodd;clip-rule:evenodd;fill:#C8202F;}
	.st1{fill:#231F20;}
</style>
<g>
	<path class="st0" d="M70.02,88.13 M90.34,17.12c-11.2,0-20.28,9.08-20.28,20.28c0,11.2,9.08,20.28,20.28,20.28   c11.2,0,20.28-9.08,20.28-20.28C110.62,26.2,101.55,17.12,90.34,17.12z M42.29,18 M60.14,79.82c-1.49,3.75-2.31,7.83-2.31,12.11   c0,18.06,14.65,32.7,32.71,32.7c18.07,0,32.71-14.65,32.71-32.7c0-18.07-12.94-27.42-12.94-27.42   c8.24-6.14,14.06-15.19,14.06-26.91c0-18.58-15.36-33.53-33.93-33.53c-18.58,0-33.33,15.39-33.33,33.53   c0,18.14-13.35,19.87-20.45,19.87c-5.58,0-20.67-5.33-20.28-21.58C17.12,20.74,30.22,15.6,37.63,15.6c2.41,0,4.09,0.5,4.09,0.5   L50,6.61c0,0-5.01-2.49-12.07-2.66C20.72,3.55,5,17.27,4.56,35.61c-0.43,18.34,13.66,33.4,31.89,33.83   c18.24,0.43,27.19-11.79,27.19-11.79c5.96,7.98,15.5,13.05,26.56,13.05c12.26,0,21.02,9.84,21.02,21.32   c0,11.48-9.31,20.8-20.79,20.8c-11.48,0-20.79-9.31-20.79-20.8c0-1.33,0.12-2.62,0.37-3.89L60.14,79.82"/>
	<g>
		<path class="st1" d="M162.53,81.69c-1.78,0.93-5.73,2.24-10.76,2.24c-11.3,0-18.65-7.74-18.65-19.19    c0-11.53,7.89-19.89,20.12-19.89c4.02,0,7.58,1.01,9.44,1.93l-1.55,5.26c-1.63-0.93-4.18-1.78-7.89-1.78    c-8.59,0-13.23,6.35-13.23,14.16c0,8.67,5.57,14.01,13,14.01c3.87,0,6.42-1.01,8.36-1.86L162.53,81.69z"/>
		<path class="st1" d="M195.48,74.11c0,3.25,0.15,6.42,0.62,8.98h-6.19l-0.54-4.72h-0.23c-2.09,2.94-6.11,5.57-11.45,5.57    c-7.58,0-11.45-5.34-11.45-10.76c0-9.05,8.05-14,22.52-13.93v-0.77c0-3.1-0.85-8.67-8.51-8.67c-3.48,0-7.12,1.08-9.75,2.79    l-1.55-4.49c3.1-2.01,7.58-3.33,12.3-3.33c11.45,0,14.24,7.82,14.24,15.32V74.11z M188.9,63.97c-7.43-0.16-15.86,1.16-15.86,8.43    c0,4.41,2.94,6.5,6.42,6.5c4.87,0,7.97-3.1,9.05-6.27c0.23-0.7,0.39-1.47,0.39-2.17V63.97z"/>
		<path class="st1" d="M204.55,55.77c0-3.87-0.08-7.04-0.31-10.14h5.96l0.31,6.03h0.23c2.09-3.56,5.57-6.89,11.76-6.89    c5.11,0,8.98,3.1,10.6,7.51h0.16c1.16-2.09,2.63-3.71,4.18-4.88c2.24-1.7,4.72-2.63,8.28-2.63c4.95,0,12.3,3.25,12.3,16.25v22.05    h-6.65v-21.2c0-7.2-2.63-11.53-8.12-11.53c-3.87,0-6.89,2.86-8.05,6.19c-0.31,0.93-0.54,2.16-0.54,3.4v23.14h-6.65V60.64    c0-5.96-2.63-10.29-7.82-10.29c-4.26,0-7.35,3.4-8.43,6.81c-0.39,1-0.54,2.17-0.54,3.33v22.59h-6.65V55.77z"/>
		<path class="st1" d="M267.17,57.86c0-4.8-0.16-8.67-0.31-12.23h6.11l0.31,6.42h0.15c2.79-4.57,7.2-7.27,13.31-7.27    c9.05,0,15.86,7.66,15.86,19.03c0,13.46-8.2,20.12-17.02,20.12c-4.95,0-9.29-2.17-11.53-5.88h-0.16V98.4h-6.73V57.86z     M273.9,67.84c0,1,0.16,1.93,0.31,2.79c1.24,4.72,5.34,7.97,10.21,7.97c7.2,0,11.38-5.88,11.38-14.47    c0-7.51-3.95-13.93-11.14-13.93c-4.64,0-8.98,3.33-10.29,8.44c-0.23,0.85-0.46,1.86-0.46,2.79V67.84z"/>
		<path class="st1" d="M350.23,80.76c-3.02,1.08-8.98,2.86-16.02,2.86c-7.89,0-14.39-2.01-19.5-6.89    c-4.49-4.33-7.27-11.3-7.27-19.42c0.08-15.55,10.76-26.93,28.24-26.93c6.04,0,10.76,1.32,13,2.4l-1.63,5.49    c-2.79-1.24-6.27-2.24-11.53-2.24c-12.69,0-20.97,7.89-20.97,20.97c0,13.23,7.97,21.05,20.12,21.05c4.41,0,7.43-0.62,8.98-1.39    V61.1h-10.6v-5.41h17.18V80.76z"/>
		<path class="st1" d="M359.23,28.14h6.81v54.94h-6.81V28.14z"/>
		<path class="st1" d="M401.88,74.11c0,3.25,0.16,6.42,0.62,8.98h-6.19l-0.55-4.72h-0.23c-2.09,2.94-6.11,5.57-11.45,5.57    c-7.58,0-11.45-5.34-11.45-10.76c0-9.05,8.05-14,22.52-13.93v-0.77c0-3.1-0.85-8.67-8.51-8.67c-3.48,0-7.12,1.08-9.75,2.79    l-1.55-4.49c3.1-2.01,7.59-3.33,12.31-3.33c11.45,0,14.24,7.82,14.24,15.32V74.11z M395.3,63.97c-7.43-0.16-15.86,1.16-15.86,8.43    c0,4.41,2.93,6.5,6.42,6.5c4.88,0,7.97-3.1,9.06-6.27c0.23-0.7,0.39-1.47,0.39-2.17V63.97z"/>
		<path class="st1" d="M443.7,28.14v45.27c0,3.33,0.07,7.12,0.31,9.67h-6.11l-0.31-6.5h-0.16c-2.09,4.18-6.65,7.35-12.77,7.35    c-9.05,0-16.02-7.66-16.02-19.03c-0.08-12.46,7.66-20.12,16.79-20.12c5.73,0,9.59,2.71,11.3,5.73h0.16V28.14H443.7z M436.89,60.87    c0-0.85-0.08-2.01-0.31-2.86c-1.01-4.33-4.72-7.89-9.83-7.89c-7.04,0-11.22,6.19-11.22,14.47c0,7.58,3.71,13.85,11.06,13.85    c4.57,0,8.75-3.02,9.98-8.13c0.23-0.93,0.31-1.86,0.31-2.94V60.87z"/>
		<path class="st1" d="M460.66,35.11c0.08,2.32-1.62,4.18-4.33,4.18c-2.39,0-4.1-1.86-4.1-4.18c0-2.4,1.78-4.26,4.25-4.26    C459.03,30.85,460.66,32.71,460.66,35.11z M453.08,83.08V45.63h6.81v37.45H453.08z"/>
		<path class="st1" d="M495.49,74.11c0,3.25,0.16,6.42,0.62,8.98h-6.19l-0.55-4.72h-0.23c-2.09,2.94-6.11,5.57-11.45,5.57    c-7.58,0-11.45-5.34-11.45-10.76c0-9.05,8.05-14,22.52-13.93v-0.77c0-3.1-0.85-8.67-8.51-8.67c-3.48,0-7.12,1.08-9.75,2.79    l-1.55-4.49c3.1-2.01,7.58-3.33,12.3-3.33c11.45,0,14.24,7.82,14.24,15.32V74.11z M488.91,63.97c-7.43-0.16-15.86,1.16-15.86,8.43    c0,4.41,2.93,6.5,6.42,6.5c4.88,0,7.97-3.1,9.06-6.27c0.23-0.7,0.38-1.47,0.38-2.17V63.97z"/>
		<path class="st1" d="M512.44,36.65v8.97h9.76v5.19h-9.76v20.19c0,4.64,1.32,7.27,5.11,7.27c1.86,0,2.94-0.16,3.95-0.47l0.31,5.11    c-1.31,0.54-3.4,1.01-6.03,1.01c-3.18,0-5.73-1.08-7.35-2.94c-1.93-2.01-2.63-5.34-2.63-9.75V50.81h-5.8v-5.19h5.8v-6.89    L512.44,36.65z"/>
		<path class="st1" d="M561.31,64.05c0,13.85-9.59,19.89-18.65,19.89c-10.13,0-17.95-7.43-17.95-19.27    c0-12.54,8.2-19.89,18.57-19.89C554.03,44.78,561.31,52.59,561.31,64.05z M531.59,64.43c0,8.2,4.72,14.39,11.38,14.39    c6.5,0,11.37-6.11,11.37-14.55c0-6.34-3.17-14.39-11.22-14.39C535.07,49.89,531.59,57.31,531.59,64.43z"/>
		<path class="st1" d="M568.36,57.31c0-4.41-0.08-8.2-0.31-11.68H574l0.24,7.35h0.3c1.7-5.03,5.81-8.2,10.37-8.2    c0.78,0,1.32,0.08,1.93,0.23v6.42c-0.7-0.16-1.39-0.23-2.32-0.23c-4.8,0-8.2,3.64-9.13,8.74c-0.16,0.93-0.31,2.01-0.31,3.17v19.96    h-6.73V57.31z"/>
	</g>
</g>
</svg>